<svg width="40" height="40" viewBox="0 0 40 40" fill="none" xmlns="http://www.w3.org/2000/svg">
<path d="M24.375 27.5898H21.4805V18.125C21.4805 17.9531 21.3399 17.8125 21.168 17.8125H18.8242C18.6524 17.8125 18.5117 17.9531 18.5117 18.125V27.5898H15.625C15.3633 27.5898 15.2188 27.8906 15.3789 28.0938L19.7539 33.6289C19.7832 33.6663 19.8205 33.6965 19.8631 33.7172C19.9058 33.738 19.9526 33.7488 20 33.7488C20.0474 33.7488 20.0943 33.738 20.1369 33.7172C20.1795 33.6965 20.2169 33.6663 20.2461 33.6289L24.6211 28.0938C24.7813 27.8906 24.6367 27.5898 24.375 27.5898Z" fill="#397EF6"/>
<path d="M31.6953 14.3242C29.9063 9.60547 25.3477 6.25 20.0078 6.25C14.668 6.25 10.1094 9.60156 8.32031 14.3203C4.97266 15.1992 2.5 18.25 2.5 21.875C2.5 26.1914 5.99609 29.6875 10.3086 29.6875H11.875C12.0469 29.6875 12.1875 29.5469 12.1875 29.375V27.0312C12.1875 26.8594 12.0469 26.7188 11.875 26.7188H10.3086C8.99219 26.7188 7.75391 26.1953 6.83203 25.2461C5.91406 24.3008 5.42578 23.0273 5.46875 21.707C5.50391 20.6758 5.85547 19.707 6.49219 18.8906C7.14453 18.0586 8.05859 17.4531 9.07422 17.1836L10.5547 16.7969L11.0977 15.3672C11.4336 14.4766 11.9023 13.6445 12.4922 12.8906C13.0745 12.1434 13.7643 11.4865 14.5391 10.9414C16.1445 9.8125 18.0352 9.21484 20.0078 9.21484C21.9805 9.21484 23.8711 9.8125 25.4766 10.9414C26.2539 11.4883 26.9414 12.1445 27.5234 12.8906C28.1133 13.6445 28.582 14.4805 28.918 15.3672L29.457 16.793L30.9336 17.1836C33.0508 17.7539 34.5312 19.6797 34.5312 21.875C34.5312 23.168 34.0273 24.3867 33.1133 25.3008C32.665 25.7517 32.1318 26.1092 31.5444 26.3526C30.957 26.596 30.3272 26.7204 29.6914 26.7188H28.125C27.9531 26.7188 27.8125 26.8594 27.8125 27.0312V29.375C27.8125 29.5469 27.9531 29.6875 28.125 29.6875H29.6914C34.0039 29.6875 37.5 26.1914 37.5 21.875C37.5 18.2539 35.0352 15.207 31.6953 14.3242Z" fill="#397EF6"/>
</svg>
