<svg width="39" height="39" viewBox="0 0 39 39" fill="none" xmlns="http://www.w3.org/2000/svg">
            <rect x="0.5" y="0.5" width="38" height="38" rx="9.5" fill="white" stroke="black"/>
            <path d="M14.3644 17.3988C15.611 16.7085 15.7591 15.0447 14.9979 13.7803C14.2367 12.5158 12.6602 11.807 11.4136 12.4972C10.167 13.1874 10.0189 14.8512 10.7801 16.1157C11.5413 17.3801 13.1178 18.089 14.3644 17.3988Z" fill="#E8B73B" stroke="#B6860D"/>
            <ellipse rx="0.497313" ry="0.614442" transform="matrix(0.874845 -0.484403 0.515761 0.856733 11.9955 14.2015)" fill="#FED97A"/>
            <path d="M23.8088 17.8364C25.3788 16.9671 25.4718 14.9593 24.6218 13.5473C23.7718 12.1354 21.9123 11.2088 20.3422 12.0781C18.7722 12.9475 18.6791 14.9552 19.5292 16.3672C20.3792 17.7791 22.2387 18.7057 23.8088 17.8364Z" fill="#975A2E" stroke="#773F17" stroke-width="2"/>
            <path d="M31.3383 17.3692C30.6751 18.1899 28.1558 18.9234 26.4165 19.3165C25.8315 19.4487 25.2294 19.5184 24.6262 19.4856C23.8144 19.4414 23.0808 19.3189 22.443 19.1597C20.7565 18.7388 19.4068 16.8807 20.6784 15.7822C21.1392 15.3842 21.7516 15.166 22.3574 15.0633C23.2572 14.9107 24.1119 14.5142 24.9577 14.193C25.0208 14.169 25.0835 14.1485 25.1455 14.1312C26.4417 13.7702 28.6927 13.8961 29.8217 14.6231C30.4043 14.9982 30.8355 15.1808 31.3405 15.6459C31.7619 16.0341 31.9404 16.6241 31.3383 17.3692Z" fill="#A8E12D" stroke="#5E9D0D" stroke-linecap="round" stroke-linejoin="round"/>
            <path d="M18.543 16.1671C19.7896 15.4768 19.9377 13.813 19.1765 12.5486C18.4153 11.2841 16.8388 10.5753 15.5922 11.2655C14.3456 11.9558 14.1975 13.6195 14.9587 14.884C15.7199 16.1485 17.2964 16.8573 18.543 16.1671Z" fill="#975A2E" stroke="#773F17"/>
            <ellipse rx="0.60469" ry="0.747109" transform="matrix(0.874845 -0.484403 0.515761 0.856733 15.9567 13.0427)" fill="#CA7A3F"/>
            <path d="M10.3644 23.3988C11.611 22.7085 11.7591 21.0447 10.9979 19.7803C10.2367 18.5158 8.66022 17.807 7.41361 18.4972C6.16701 19.1874 6.01888 20.8512 6.78009 22.1157C7.5413 23.3801 9.11779 24.089 10.3644 23.3988Z" fill="#975A2E" stroke="#773F17"/>
            <path d="M20.9674 15.3509C20.6729 14.7841 20.5057 14.1559 20.5077 13.5206C20.5097 12.8852 20.6806 12.3187 20.9783 11.8602C21.2362 11.4631 21.6006 11.2312 22.0459 11.2259C22.4822 11.2207 22.8991 11.4344 23.2322 11.7237C23.8875 12.2926 24.3621 13.2657 24.3591 14.2242C24.3561 15.1827 23.8759 15.9813 23.2179 16.3103C22.8833 16.4776 22.4656 16.5389 22.0298 16.3743C21.585 16.2063 21.2225 15.8417 20.9674 15.3509Z" fill="#FA5252" stroke="#BC2121" stroke-linecap="round" stroke-linejoin="round"/>
            <path d="M8.7228 16.376C9.08733 15.7541 9.68729 15.2817 10.4743 15.109C11.2613 14.9364 12.0795 15.0977 12.7911 15.4835C13.2394 15.7266 13.5497 16.0639 13.693 16.4602C13.8333 16.8483 13.7944 17.2393 13.6551 17.5793C13.3809 18.2489 12.6847 18.814 11.8159 19.0046C10.9471 19.1952 9.98681 18.9935 9.32227 18.5298C8.98489 18.2944 8.70102 17.9742 8.57309 17.5834C8.44242 17.1843 8.49313 16.7678 8.7228 16.376Z" fill="#FA5252" stroke="#BC2121" stroke-linecap="round" stroke-linejoin="round"/>
            <ellipse rx="0.517265" ry="0.597743" transform="matrix(1.01452 -0.0267542 0.200253 0.968225 8.70289 16.865)" fill="#FE9595"/>
            <ellipse rx="0.497313" ry="0.614442" transform="matrix(0.874845 -0.484403 0.515761 0.856733 19.2303 13.2208)" fill="#FE9595"/>
            <path d="M12.2675 28.4614C13.6536 28.1563 15.7819 25.468 17.035 23.6406C17.3813 23.1356 17.666 22.591 17.8524 22.0093C18.261 20.7349 18.4409 19.531 18.49 18.4939C18.5825 16.5384 17.2077 14.3038 15.2802 14.8004C14.4094 15.0247 13.7516 15.6634 13.287 16.3936C12.637 17.4153 11.1501 18.4965 10.5911 19.5694C9.76942 21.1464 8.9395 23.3925 9.41917 25.1152C9.64685 25.9329 9.70747 26.5178 10.001 27.3159C10.2905 28.1029 10.9771 28.7455 12.2675 28.4614Z" fill="#A8E12D" stroke="#5E9D0D" stroke-width="2" stroke-linecap="round" stroke-linejoin="round"/>
            <path d="M13.8686 14.6199C10.9664 16.2269 9.29288 19.1771 8.92292 22.548C8.76323 24.0031 9.09997 25.2531 9.80221 26.2541C10.5009 27.25 11.5386 27.9675 12.7318 28.4047C15.1086 29.2756 18.1686 29.062 20.7054 27.6573L22.2232 26.8169C24.76 25.4123 26.4829 22.9776 26.8849 20.5682C27.0867 19.3585 26.9576 18.1379 26.4076 17.0596C25.8548 15.9759 24.8944 15.0712 23.5006 14.4763C20.2717 13.0981 16.7708 13.013 13.8686 14.6199Z" fill="#F7A913" stroke="#AE6C08"/>
            <path fill-rule="evenodd" clip-rule="evenodd" d="M27.2146 23.4819C27.0323 23.5828 26.7836 23.3378 26.8607 23.1482C27.2989 22.0701 27.159 20.8294 26.2405 19.8867C24.4718 18.0714 24.7514 15.6004 26.7796 17.1387C27.2831 17.5206 27.7694 17.9403 28.2337 18.3959C29.8243 19.9569 29.1472 22.4118 27.2146 23.4819Z" fill="#ED9E05"/>
            <path d="M14.4094 26.4414C14.7423 27.7551 14.1877 28.8891 13.1705 28.9742C12.1534 29.0593 11.0589 28.0633 10.7259 26.7496C10.393 25.4358 10.2951 22.2502 11.3122 22.1651C12.3294 22.08 14.0764 25.1276 14.4094 26.4414Z" fill="#FFBB38"/>
            <ellipse rx="0.415123" ry="0.562394" transform="matrix(0.874845 -0.484403 0.515761 0.856733 26.3467 21.4765)" fill="#CB8807"/>
            <ellipse rx="0.415123" ry="0.562394" transform="matrix(0.874845 -0.484403 0.515761 0.856733 25.7542 19.4128)" fill="#CB8807"/>
            <ellipse rx="0.415123" ry="0.562394" transform="matrix(0.874845 -0.484403 0.515761 0.856733 24.2872 23.2595)" fill="#CB8807"/>
            <ellipse rx="0.3313" ry="0.448833" transform="matrix(0.874845 -0.484403 0.515761 0.856733 27.7142 21.3617)" fill="#CB8807"/>
            <ellipse rx="0.3313" ry="0.448833" transform="matrix(0.874845 -0.484403 0.515761 0.856733 24.8142 21.5925)" fill="#CB8807"/>
            <ellipse rx="0.3313" ry="0.448833" transform="matrix(0.874845 -0.484403 0.515761 0.856733 26.6338 18.2831)" fill="#CB8807"/>
            <ellipse rx="0.3313" ry="0.448833" transform="matrix(0.874845 -0.484403 0.515761 0.856733 28.6043 20.5478)" fill="#CB8807"/>
            <ellipse rx="0.278563" ry="0.377387" transform="matrix(0.874845 -0.484403 0.515761 0.856733 26.169 22.84)" fill="#CB8807"/>
            <ellipse rx="0.278563" ry="0.377387" transform="matrix(0.874845 -0.484403 0.515761 0.856733 23.226 24.1867)" fill="#CB8807"/>
            <ellipse rx="0.210043" ry="0.284559" transform="matrix(0.874845 -0.484403 0.515761 0.856733 23.707 22.0178)" fill="#CB8807"/>
            <ellipse rx="0.210043" ry="0.284559" transform="matrix(0.874845 -0.484403 0.515761 0.856733 25.4406 20.5539)" fill="#CB8807"/>
            <ellipse rx="0.210043" ry="0.284559" transform="matrix(0.874845 -0.484403 0.515761 0.856733 24.802 19.6225)" fill="#CB8807"/>
            <ellipse rx="0.210043" ry="0.284559" transform="matrix(0.874845 -0.484403 0.515761 0.856733 24.4027 20.5022)" fill="#CB8807"/>
            <ellipse rx="0.210043" ry="0.284559" transform="matrix(0.874845 -0.484403 0.515761 0.856733 25.412 17.633)" fill="#CB8807"/>
            <ellipse rx="0.210043" ry="0.284559" transform="matrix(0.874845 -0.484403 0.515761 0.856733 25.0361 22.8447)" fill="#CB8807"/>
            <ellipse rx="0.157351" ry="0.213174" transform="matrix(0.874845 -0.484403 0.515761 0.856733 22.6188 25.1416)" fill="#CB8807"/>
            <ellipse rx="0.157351" ry="0.213174" transform="matrix(0.874845 -0.484403 0.515761 0.856733 24.2194 24.3506)" fill="#CB8807"/>
            <ellipse rx="0.157351" ry="0.213174" transform="matrix(0.874845 -0.484403 0.515761 0.856733 28.8462 21.6211)" fill="#CB8807"/>
            <ellipse rx="0.157351" ry="0.213174" transform="matrix(0.874845 -0.484403 0.515761 0.856733 29.4243 20.7939)" fill="#CB8807"/>
            <ellipse rx="0.157351" ry="0.213174" transform="matrix(0.874845 -0.484403 0.515761 0.856733 28.2722 19.49)" fill="#CB8807"/>
            <ellipse rx="0.278563" ry="0.377387" transform="matrix(0.874845 -0.484403 0.515761 0.856733 27.2286 22.4015)" fill="#CB8807"/>
            <ellipse rx="0.520463" ry="0.705105" transform="matrix(0.874845 -0.484403 0.515761 0.856733 27.1518 19.7856)" fill="#CB8807"/>
            <path d="M13.8634 28.9569C13.8634 28.9569 14.1426 27.9713 14.7107 27.5488C15.3916 27.0422 16.2057 27.8298 16.8653 27.2947C17.3894 26.8695 17.0883 26.155 17.6457 25.7754C18.2687 25.3512 18.8843 26.2086 19.5303 25.8191C20.1467 25.4474 19.7907 24.6956 20.4389 24.3771C21.1035 24.0505 21.6606 24.9519 22.2762 24.5458C22.8488 24.168 22.5181 23.2258 23.1192 22.893C23.8544 22.4859 24.3094 23.4832 25.0331 23.0193C25.6264 22.6389 25.642 21.7671 26.2369 21.3891C26.8244 21.0158 27.6785 21.3074 27.6785 21.3074" stroke="#FFC961" stroke-linecap="round" stroke-linejoin="round"/>
            <path d="M25.5305 19.1571C25.5305 19.1571 24.5009 18.8962 23.8354 19.1568C23.0374 19.4691 23.3416 20.539 22.5286 20.8193C21.8826 21.042 21.3879 20.4346 20.7665 20.7078C20.0719 21.0131 20.5383 21.9531 19.8636 22.2949C19.2197 22.621 18.7188 21.9494 18.1071 22.3285C17.4799 22.7172 18.0154 23.6306 17.3408 23.9389C16.7134 24.2255 16.028 23.4797 15.4268 23.8126C14.6917 24.2196 15.3647 25.0962 14.5839 25.4653C13.9438 25.768 13.1487 25.3449 12.51 25.65" stroke="#FFC961" stroke-linecap="round" stroke-linejoin="round"/>
            <path d="M23.9273 17.1467C23.2463 17.6533 22.4322 16.8657 21.7726 17.4008C21.2485 17.826 21.5496 18.5406 20.9923 18.9201C20.3692 19.3444 19.7536 18.4869 19.1076 18.8764C18.4912 19.2481 18.8472 20 18.1991 20.3185C17.5345 20.6451 16.9774 19.7436 16.3617 20.1498C15.7892 20.5275 16.1199 21.4697 15.5187 21.8025C14.7836 22.2096 14.3285 21.2123 13.6048 21.6763C13.0115 22.0566 12.996 22.9285 12.4011 23.3064" stroke="#FFC961" stroke-linecap="round" stroke-linejoin="round"/>
            <path d="M20.5827 15.8497C19.9597 16.274 19.3441 15.4165 18.6981 15.8061C18.0817 16.1777 18.4377 16.9296 17.7895 17.2481C17.1249 17.5747 16.5678 16.6732 15.9522 17.0794C15.3796 17.4571 15.7103 18.3993 15.1092 18.7322C14.374 19.1392 13.919 18.142 13.1953 18.6059C12.602 18.9862 12.5864 19.8581 11.9915 20.236" stroke="#FFC961" stroke-linecap="round" stroke-linejoin="round"/>
            <path d="M11.8953 27.1804C11.3833 25.2896 11.2581 22.2209 12.5031 19.7772" stroke="#FFEECE" stroke-width="0.5" stroke-linecap="round" stroke-linejoin="round"/>
            </svg>