<svg width="25" height="25" viewBox="0 0 25 25" fill="none" xmlns="http://www.w3.org/2000/svg">
<path d="M13.4375 10.9375C12.8125 10.7812 12.1875 10.4687 11.7188 10C11.25 9.84375 11.0938 9.375 11.0938 9.0625C11.0938 8.75 11.25 8.28125 11.5625 8.125C12.0312 7.8125 12.5 7.5 12.9688 7.65625C13.9062 7.65625 14.6875 8.125 15.1562 8.75L16.5625 6.875C16.0938 6.40625 15.625 6.09375 15.1562 5.78125C14.6875 5.46875 14.0625 5.3125 13.4375 5.3125V3.125H11.5625V5.3125C10.7812 5.46875 10 5.9375 9.375 6.5625C8.75 7.34375 8.28125 8.28125 8.4375 9.21875C8.4375 10.1562 8.75 11.0938 9.375 11.7188C10.1562 12.5 11.25 12.9688 12.1875 13.4375C12.6562 13.5938 13.2812 13.9063 13.75 14.2188C14.0625 14.5313 14.2188 15 14.2188 15.4687C14.2188 15.9375 14.0625 16.4062 13.75 16.875C13.2812 17.3438 12.6562 17.5 12.1875 17.5C11.5625 17.5 10.7813 17.3438 10.3125 16.875C9.84375 16.5625 9.375 16.0938 9.0625 15.625L7.5 17.3438C7.96875 17.9688 8.4375 18.4375 9.0625 18.9062C9.84375 19.375 10.7812 19.8438 11.7188 19.8438V21.875H13.4375V19.5312C14.375 19.375 15.1563 18.9062 15.7813 18.2812C16.5625 17.5 17.0312 16.25 17.0312 15.1562C17.0312 14.2188 16.7188 13.125 15.9375 12.5C15.1562 11.7188 14.375 11.25 13.4375 10.9375ZM12.5 0C5.625 0 0 5.625 0 12.5C0 19.375 5.625 25 12.5 25C19.375 25 25 19.375 25 12.5C25 5.625 19.375 0 12.5 0ZM12.5 23.2812C6.5625 23.2812 1.71875 18.4375 1.71875 12.5C1.71875 6.5625 6.5625 1.71875 12.5 1.71875C18.4375 1.71875 23.2812 6.5625 23.2812 12.5C23.2812 18.4375 18.4375 23.2812 12.5 23.2812Z" fill="#8914FF"/>
</svg>
