 <svg width="500" height="594" viewBox="0 0 496 374" fill="none" xmlns="http://www.w3.org/2000/svg">
                <ellipse cx="277.5" cy="173.5" rx="166.5" ry="173.5" fill="#397EF6"/>
                <circle cx="27" cy="143" r="7" fill="#2D20C2" fill-opacity="0.41"/>
                <circle cx="179" cy="323" r="7" fill="#2D20C2" fill-opacity="0.41"/>
                <circle cx="17" cy="214" r="7" fill="#2D20C2" fill-opacity="0.41"/>
                <path d="M391.36 34.0398V92.9435C391.36 93.9024 390.2 94.3827 389.522 93.7047L347.21 51.3854C345.76 49.9354 345.875 47.5434 347.468 46.253C358.596 37.2403 372.5 31.5221 387.697 30.5816C389.684 30.4585 391.36 32.0486 391.36 34.0398Z" fill="#E0F1F0"/>
                <path d="M436.994 51.301L394.788 93.5135C394.11 94.1916 392.951 93.7114 392.951 92.7523V34.0404C392.951 32.0455 394.632 30.4585 396.623 30.582C404.806 31.0895 412.614 32.9823 419.816 36.0289C425.933 38.6173 431.612 42.0374 436.712 46.1489C438.318 47.4435 438.452 49.8424 436.994 51.301Z" fill="#E0F1F0"/>
                <path d="M459.22 96.4456H396.706C395.747 96.4456 395.267 95.2862 395.945 94.6081L438.385 52.1597C439.759 50.785 441.984 50.8093 443.332 52.2091C453.689 62.9583 460.69 76.9617 462.654 92.535C462.916 94.609 461.31 96.4456 459.22 96.4456Z" fill="#E0F1F0"/>
                <path d="M387.414 96.4456H325.09C323 96.4456 321.394 94.6093 321.655 92.5357C323.613 77.0111 330.577 63.046 340.88 52.3101C342.228 50.9051 344.455 50.8793 345.832 52.2563L388.175 94.6081C388.853 95.2863 388.373 96.4456 387.414 96.4456Z" fill="#E0F1F0"/>
                <path d="M391.36 101.353V316.898C391.36 319.025 389.636 320.749 387.51 320.749H324.943C322.817 320.749 321.093 319.025 321.093 316.898V101.519V101.484C321.094 99.5804 322.637 98.0373 324.54 98.0373H388.044C389.875 98.0373 391.36 99.5218 391.36 101.353Z" fill="#E0F1F0"/>
                <path d="M463.216 101.519V316.898C463.216 319.025 461.492 320.749 459.366 320.749H396.801C394.675 320.749 392.951 319.025 392.951 316.898V101.353C392.951 99.5219 394.435 98.0374 396.266 98.0374H459.769C461.673 98.0374 463.216 99.5806 463.216 101.484V101.519Z" fill="#E0F1F0"/>
                <path d="M183.732 372.814L197.851 289.876C198.899 283.718 203.102 279.334 207.958 279.334H255.57C260.426 279.334 264.629 283.718 265.677 289.876L279.796 372.814" stroke="#573240" stroke-miterlimit="10" stroke-linecap="round"/>
                <path d="M208.24 279.266C203.19 278.775 198.72 275.666 196.524 271.016L186.807 250.439C184.47 245.493 188.079 239.797 193.548 239.797H194.136C197.327 239.797 199.798 237.001 199.405 233.832L196.69 210.948C195.923 204.48 200.975 198.792 207.488 198.792H257.155C263.669 198.792 268.721 204.48 267.953 210.948L265.238 233.832C264.847 237.001 267.317 239.797 270.509 239.797H271.096C276.566 239.797 280.174 245.493 277.838 250.439L268.12 271.016C265.924 275.666 261.453 278.775 256.405 279.266H208.24Z" fill="white" stroke="#573240" stroke-miterlimit="10" stroke-linecap="round"/>
                <path d="M262.343 173.025C263.865 174.156 265.989 174.935 268.947 174.978L272.252 194.472C273.099 199.462 270.094 204.3 265.248 205.753L262.734 206.507L259.753 224.521L289.895 236.616L288.518 274.614H231.302C201.693 274.614 208.974 236.156 225.483 228.001L226.707 172.048L262.343 173.025Z" fill="#B2DDDA"/>
                <path d="M286.505 236.157C298.446 236.157 302.61 251.617 286.028 291.08C268.148 333.631 256.913 357.174 266.904 372.814H257.68C252.586 372.814 248.494 368.615 248.626 363.522C248.839 355.29 249.11 343.911 249.11 339.462C249.11 332.15 250.316 236.157 286.505 236.157Z" fill="#F1B104"/>
                <path d="M266.904 373.181H257.68C257.477 373.181 257.313 373.017 257.313 372.814C257.313 372.611 257.477 372.447 257.68 372.447H266.904C267.107 372.447 267.271 372.611 267.271 372.814C267.271 373.017 267.107 373.181 266.904 373.181Z" fill="#FF6E00"/>
                <path d="M263.496 353.724C263.424 354.317 263.362 354.902 263.313 355.479H248.826C248.838 354.967 248.849 354.454 248.861 353.945C248.863 353.871 248.865 353.798 248.866 353.724H263.496Z" fill="#FF6E00"/>
                <path d="M251.253 370.141C254.333 367.819 261.454 366.963 264.479 367.725C264.187 366.852 263.947 365.957 263.755 365.037C258.348 363.661 252.168 364.886 248.847 365.779C248.847 365.779 249.354 368.677 251.253 370.141Z" fill="#FF6E00"/>
                <path d="M234.777 353.724C234.777 353.724 211.707 236.157 254.76 236.157C288.28 236.157 248.206 330.728 248.922 353.965C249.335 367.372 257.522 372.814 257.522 372.814H244.084C242.33 372.814 240.772 371.691 240.217 370.027L234.777 353.724Z" fill="#F1B104"/>
                <path d="M257.889 372.814C257.889 373.017 257.725 373.181 257.522 373.181H244.084C242.169 373.181 240.475 371.961 239.868 370.143L236.834 361.052V371.831C236.834 372.374 236.395 372.814 235.853 372.814H230.541C230.044 372.814 229.628 372.443 229.566 371.95C227.997 359.545 234.777 353.724 234.777 353.724H248.948L249.071 355.48H235.75L240.51 369.748C241.657 368.703 246.054 365.066 251.57 365.186C252.23 366.55 252.95 367.836 253.655 368.81C253.55 368.817 253.444 368.825 253.339 368.837C249.947 369.212 247.163 370.921 245.297 372.447H257.522C257.725 372.447 257.889 372.611 257.889 372.814Z" fill="#FF6E00"/>
                <path d="M267.766 248.236C270.67 275.923 248.018 336.537 248.555 353.965C248.968 367.373 257.644 372.936 257.644 372.936" stroke="#573240" stroke-miterlimit="10" stroke-linecap="round"/>
                <path d="M282.116 228.072H246.293L270.408 171.281H306.231L282.116 228.072Z" fill="#FCD4D0"/>
                <path d="M317.983 228.072H282.16L306.275 171.28H342.098L317.983 228.072Z" fill="#F6ACC1"/>
                <path d="M306.354 171.159L282.116 228.073H246.293L270.531 171.159" stroke="white" stroke-miterlimit="10" stroke-linecap="round"/>
                <path d="M307.695 188.587H325.729" stroke="white" stroke-miterlimit="10" stroke-linecap="round"/>
                <path d="M306.471 192.382H324.504" stroke="white" stroke-miterlimit="10" stroke-linecap="round"/>
                <path d="M227.366 172.047C223.56 172.047 220.21 174.557 219.139 178.211L209.519 211.048C207.026 219.556 213.404 228.073 222.268 228.073C226.223 228.073 229.972 226.311 232.496 223.266L251.004 200.939C253.159 198.338 256.361 196.833 259.739 196.833H265.508C268.042 196.833 270.39 195.499 271.687 193.322L276.356 185.486C276.598 185.08 276.306 184.565 275.833 184.565H265.909C265.131 184.565 264.606 183.768 264.914 183.053L265.372 181.988H255.953C252.527 181.988 249.192 183.095 246.446 185.144L234.261 194.233L235.869 181.714C236.527 176.587 232.534 172.047 227.366 172.047Z" fill="#F1B104"/>
                <path d="M262.432 193.772H268.201C269.354 193.772 270.469 193.496 271.464 192.989" stroke="#573240" stroke-miterlimit="10" stroke-linecap="round"/>
                <path d="M263.656 190.834H269.914C271.068 190.834 272.183 190.558 273.178 190.051" stroke="#573240" stroke-miterlimit="10" stroke-linecap="round"/>
                <path d="M264.757 187.895H271.751C272.904 187.895 274.019 187.619 275.014 187.113" stroke="#573240" stroke-miterlimit="10" stroke-linecap="round"/>
                <path d="M236.257 192.745L223.701 200.814" stroke="#573240" stroke-miterlimit="10" stroke-linecap="round"/>
                <path d="M229.229 172.251C228.63 172.118 228.007 172.048 227.366 172.048C223.56 172.048 220.21 174.558 219.14 178.211L213.212 198.44C206.606 196.737 199.862 193.429 198.92 187.002C196.639 171.448 213.709 172.3 219.639 170.35C225.57 168.4 223.406 163.032 227.963 158.569C233.331 153.313 240.64 156.56 244.741 154.87C248.883 153.165 249.485 147.665 254.005 146.581C257.354 145.778 259.92 147.37 261.516 148.906C262.195 148.534 262.981 148.321 263.819 148.321C266.393 148.321 268.479 150.332 268.479 152.812C268.479 155.196 266.552 157.147 264.116 157.294C264.274 167.187 274.127 169.483 268.948 174.978C258.652 174.938 254.7 163.356 254.109 160.38C253.412 165.258 251.36 171.721 245.465 173.752C240.11 175.598 234.748 174.337 231.137 172.918L229.229 172.251Z" fill="#FF6E00"/>
                <path d="M262.344 173.025C262.351 173.166 262.356 173.306 262.356 173.447C262.356 177.486 259.115 180.83 255.026 180.904L248.083 181.027C244.327 181.095 241.115 178.362 240.567 174.659C242.165 174.594 243.816 174.321 245.466 173.752C250.619 171.977 252.836 166.813 253.777 162.284C253.782 162.259 253.787 162.236 253.792 162.211C253.952 161.434 254.075 160.675 254.168 159.956L252.166 159.569C250.776 159.3 249.877 157.942 250.174 156.557L250.254 156.179C250.542 154.833 251.854 153.964 253.206 154.225L254.683 154.633L255.521 155.021C256.434 155.339 257.863 155.631 259.578 155.264C261.413 154.873 263.097 153.597 263.39 151.311C263.935 152.079 264.192 153.268 264.192 154.611C264.192 158.538 263.099 164.223 260.093 164.223C259.586 164.223 259.059 164.158 258.536 164.049C258.494 165.282 258.576 170.228 262.344 173.025Z" fill="#F1B104"/>
                <path d="M258.414 164.242C254.298 163.387 254.082 160.256 254.082 160.256" stroke="#573240" stroke-miterlimit="10" stroke-linecap="round"/>
                <path d="M261.107 160.973C259.506 160.99 259.16 160.071 259.16 160.071L258.651 160.292" stroke="#573240" stroke-miterlimit="10" stroke-linecap="round"/>
                <path d="M264.168 155.629C263.817 155.246 263.018 155.263 262.452 155.549C261.33 156.115 261.208 159.392 261.208 159.392" stroke="#573240" stroke-miterlimit="10" stroke-linecap="round"/>
                <path d="M263.263 157.57C263.281 157.238 263.128 156.96 262.921 156.948C262.713 156.936 262.529 157.196 262.511 157.527C262.492 157.859 262.645 158.138 262.853 158.149C263.06 158.161 263.244 157.902 263.263 157.57Z" fill="#573240"/>
                <path d="M258.926 157.332C258.945 157 258.792 156.722 258.584 156.71C258.376 156.698 258.193 156.958 258.174 157.289C258.155 157.621 258.308 157.9 258.516 157.911C258.724 157.923 258.907 157.664 258.926 157.332Z" fill="#573240"/>
                <path d="M254.072 157.179C254.169 156.318 253.557 155.538 252.698 155.43" stroke="#573240" stroke-miterlimit="10" stroke-linecap="round"/>
                <path d="M253.224 161.799C253.917 161.799 254.479 161.237 254.479 160.544C254.479 159.851 253.917 159.289 253.224 159.289C252.531 159.289 251.97 159.851 251.97 160.544C251.97 161.237 252.531 161.799 253.224 161.799Z" fill="white"/>
                <path d="M251.081 228.101C243.511 228.101 236.96 234.888 235.325 244.421L213.317 372.813" stroke="#F1B104" stroke-miterlimit="10"/>
                <path d="M344.492 228.007C352.072 228.007 358.634 234.804 360.271 244.351L382.312 372.937" stroke="#F1B104" stroke-miterlimit="10"/>
                <path d="M207.251 228.101H388.378" stroke="#573240" stroke-miterlimit="10" stroke-linecap="round"/>
                <path d="M261.009 24.5938V53.2316C261.009 63.3693 269.225 71.5876 279.361 71.5876C286.704 71.5876 293.04 67.2746 295.974 61.0433" stroke="#573240" stroke-miterlimit="10" stroke-linecap="round"/>
                <path d="M260.924 23.2298V53.2316C260.924 63.3693 252.708 71.5876 242.572 71.5876C235.229 71.5876 228.893 67.2746 225.959 61.0433" stroke="#573240" stroke-miterlimit="10" stroke-linecap="round"/>
                <path d="M278.468 60.6382C277.567 68.5705 270.075 74.7605 260.966 74.7605C251.919 74.7605 244.467 68.654 243.483 60.7989" stroke="#573240" stroke-miterlimit="10" stroke-linecap="round"/>
                <path d="M225.586 58.9084C226.527 58.9084 227.291 58.1451 227.291 57.2034C227.291 56.2617 226.527 55.4984 225.586 55.4984C224.644 55.4984 223.881 56.2617 223.881 57.2034C223.881 58.1451 224.644 58.9084 225.586 58.9084Z" fill="#F1B104"/>
                <path d="M243.315 58.9084C244.257 58.9084 245.02 58.1451 245.02 57.2034C245.02 56.2617 244.257 55.4984 243.315 55.4984C242.374 55.4984 241.611 56.2617 241.611 57.2034C241.611 58.1451 242.374 58.9084 243.315 58.9084Z" fill="#F1B104"/>
                <path d="M278.637 58.9084C279.579 58.9084 280.342 58.1451 280.342 57.2034C280.342 56.2617 279.579 55.4984 278.637 55.4984C277.696 55.4984 276.932 56.2617 276.932 57.2034C276.932 58.1451 277.696 58.9084 278.637 58.9084Z" fill="#F1B104"/>
                <path d="M248.361 76.7775C249.302 76.7775 250.066 76.0142 250.066 75.0725C250.066 74.1309 249.302 73.3675 248.361 73.3675C247.419 73.3675 246.656 74.1309 246.656 75.0725C246.656 76.0142 247.419 76.7775 248.361 76.7775Z" fill="#F1B104"/>
                <path d="M273.728 76.7775C274.669 76.7775 275.432 76.0142 275.432 75.0725C275.432 74.1309 274.669 73.3675 273.728 73.3675C272.786 73.3675 272.023 74.1309 272.023 75.0725C272.023 76.0142 272.786 76.7775 273.728 76.7775Z" fill="#F1B104"/>
                <path d="M260.908 78.278C261.849 78.278 262.612 77.5146 262.612 76.5729C262.612 75.6313 261.849 74.8679 260.908 74.8679C259.966 74.8679 259.203 75.6313 259.203 76.5729C259.203 77.5146 259.966 78.278 260.908 78.278Z" stroke="#573240" stroke-miterlimit="10" stroke-linecap="round"/>
                <path d="M260.908 31.6274C261.849 31.6274 262.612 30.864 262.612 29.9223C262.612 28.9807 261.849 28.2173 260.908 28.2173C259.966 28.2173 259.203 28.9807 259.203 29.9223C259.203 30.864 259.966 31.6274 260.908 31.6274Z" fill="white" stroke="#573240" stroke-miterlimit="10" stroke-linecap="round"/>
                <path d="M296.503 58.9084C297.444 58.9084 298.208 58.1451 298.208 57.2034C298.208 56.2617 297.444 55.4984 296.503 55.4984C295.561 55.4984 294.798 56.2617 294.798 57.2034C294.798 58.1451 295.561 58.9084 296.503 58.9084Z" fill="#F1B104"/>
                <path d="M18.0816 261.682C18.0816 261.682 15.1133 251.951 3.43646 250.077C3.43646 250.077 4.40449 259.88 12.4218 261.682H18.0816Z" fill="#96CFCE"/>
                <path d="M35.3234 261.654C35.3234 261.654 40.5251 253.762 51.0057 253.095C51.0057 253.095 49.1192 258.768 44.2994 261.654H35.3234Z" fill="#96CFCE"/>
                <path d="M23.2783 261.654C23.2783 261.654 8.43062 250.356 8.76162 226.674C8.76162 226.674 31.2 241.553 29.7476 261.654H23.2783Z" fill="#96CFCE"/>
                <path d="M31.8745 261.654C31.8745 261.654 31.6193 245.857 49.0373 239.276C49.0373 239.276 47.4137 252.331 35.3235 261.654H31.8745Z" fill="#96CFCE"/>
                <path d="M27.0491 237.797C27.0491 237.797 26.5407 231.555 39.7281 228.45C39.7281 228.45 39.5414 239.785 27.0491 244.281V237.797Z" fill="#96CFCE"/>
                <path d="M49.9927 251.233C50.923 251.233 51.6772 250.479 51.6772 249.548C51.6772 248.618 50.923 247.863 49.9927 247.863C49.0623 247.863 48.3082 248.618 48.3082 249.548C48.3082 250.479 49.0623 251.233 49.9927 251.233Z" stroke="#573240" stroke-miterlimit="10" stroke-linecap="round"/>
                <path d="M6.7459 259.52C7.67623 259.52 8.43041 258.766 8.43041 257.836C8.43041 256.905 7.67623 256.151 6.7459 256.151C5.81558 256.151 5.0614 256.905 5.0614 257.836C5.0614 258.766 5.81558 259.52 6.7459 259.52Z" stroke="#573240" stroke-miterlimit="10" stroke-linecap="round"/>
                <path d="M39.4396 233.051C40.1157 233.051 40.6637 232.503 40.6637 231.827C40.6637 231.151 40.1157 230.603 39.4396 230.603C38.7636 230.603 38.2155 231.151 38.2155 231.827C38.2155 232.503 38.7636 233.051 39.4396 233.051Z" stroke="#573240" stroke-miterlimit="10" stroke-linecap="round"/>
                <path d="M27.0377 261.438V237.348" stroke="#F1B104" stroke-miterlimit="10"/>
                <path d="M27.0493 238.042C30.3785 238.042 33.0774 235.343 33.0774 232.013C33.0774 228.683 30.3785 225.984 27.0493 225.984C23.72 225.984 21.0211 228.683 21.0211 232.013C21.0211 235.343 23.72 238.042 27.0493 238.042Z" fill="#F1B104"/>
                <path d="M27.8868 231.93C26.1117 232.364 24.3211 231.276 23.8874 229.501C23.5403 228.08 24.4103 226.648 25.8303 226.301C26.9664 226.023 28.1123 226.719 28.3899 227.855C28.612 228.764 28.0552 229.681 27.1464 229.903C26.4193 230.081 25.686 229.636 25.5082 228.908C25.3661 228.326 25.7224 227.74 26.304 227.598" stroke="#573240" stroke-miterlimit="10" stroke-linecap="round"/>
                <path d="M27.0493 237.797C27.0493 237.797 27.0493 232.4 32.7995 232.4" stroke="#573240" stroke-miterlimit="10" stroke-linecap="round"/>
                <path d="M38.3672 252.468C37.7658 253.135 36.8526 253.745 35.7699 254.14C34.0823 254.759 32.4813 254.673 31.7023 254.017C30.8515 253.457 30.3123 251.947 30.4244 250.153C30.4927 249.042 30.7971 248.026 31.2379 247.268" stroke="#573240" stroke-miterlimit="10" stroke-linecap="round"/>
                <path d="M34.835 248.938C34.835 248.938 30.6686 252.018 30.6686 261.438" stroke="#573240" stroke-miterlimit="10" stroke-linecap="round"/>
                <path d="M31.3134 247.664C32.0934 247.664 32.7258 247.031 32.7258 246.251C32.7258 245.471 32.0934 244.838 31.3134 244.838C30.5333 244.838 29.901 245.471 29.901 246.251C29.901 247.031 30.5333 247.664 31.3134 247.664Z" fill="#FF6E00"/>
                <path d="M35.381 249.528C36.1923 249.528 36.8499 248.871 36.8499 248.059C36.8499 247.248 36.1923 246.59 35.381 246.59C34.5697 246.59 33.912 247.248 33.912 248.059C33.912 248.871 34.5697 249.528 35.381 249.528Z" fill="#FF6E00"/>
                <path d="M38.8838 252.975C39.6639 252.975 40.2962 252.343 40.2962 251.563C40.2962 250.783 39.6639 250.15 38.8838 250.15C38.1038 250.15 37.4714 250.783 37.4714 251.563C37.4714 252.343 38.1038 252.975 38.8838 252.975Z" fill="#FF6E00"/>
                <path d="M12.6116 237.433C13.4585 238.032 14.2552 239.236 14.7002 240.737C15.2753 242.678 15.1198 244.634 14.3532 245.47C13.7876 246.247 12.7726 246.881 11.5463 247.382C10.3255 247.881 9.10993 248.036 8.16663 247.879" stroke="#573240" stroke-miterlimit="10" stroke-linecap="round"/>
                <path d="M9.21527 242.291C9.21527 242.291 21.1892 246.087 22.0049 261.403" stroke="#573240" stroke-miterlimit="10" stroke-linecap="round"/>
                <path d="M7.19231 248.994C8.03739 248.994 8.72245 248.309 8.72245 247.463C8.72245 246.618 8.03739 245.933 7.19231 245.933C6.34724 245.933 5.66217 246.618 5.66217 247.463C5.66217 248.309 6.34724 248.994 7.19231 248.994Z" fill="#FF6E00"/>
                <path d="M7.86875 243.192C8.74763 243.192 9.4601 242.48 9.4601 241.601C9.4601 240.722 8.74763 240.009 7.86875 240.009C6.98988 240.009 6.2774 240.722 6.2774 241.601C6.2774 242.48 6.98988 243.192 7.86875 243.192Z" fill="#FF6E00"/>
                <path d="M12.5334 238.964C13.3785 238.964 14.0636 238.278 14.0636 237.433C14.0636 236.588 13.3785 235.903 12.5334 235.903C11.6884 235.903 11.0033 236.588 11.0033 237.433C11.0033 238.278 11.6884 238.964 12.5334 238.964Z" fill="#FF6E00"/>
                <path d="M20.0959 262.035C23.4251 262.035 26.124 259.335 26.124 256.005C26.124 252.676 23.4251 249.976 20.0959 249.976C16.7666 249.976 14.0677 252.676 14.0677 256.005C14.0677 259.335 16.7666 262.035 20.0959 262.035Z" fill="#F1B104"/>
                <path d="M20.9334 255.922C19.1583 256.356 17.3677 255.269 16.934 253.493C16.587 252.073 17.4569 250.64 18.8769 250.293C20.013 250.015 21.1589 250.711 21.4365 251.848C21.6586 252.757 21.1019 253.674 20.1931 253.896C19.466 254.073 18.7326 253.628 18.5549 252.901C18.4127 252.319 18.7691 251.732 19.3506 251.59" stroke="#573240" stroke-miterlimit="10" stroke-linecap="round"/>
                <path d="M42.2807 374H10.8008C9.99511 374 9.34192 373.347 9.34192 372.541V372.238C9.34192 371.432 9.99511 370.779 10.8008 370.779H42.2807C43.0864 370.779 43.7395 371.432 43.7395 372.238V372.541C43.7395 373.347 43.0864 374 42.2807 374Z" fill="#E0F1F0"/>
                <path d="M13.8124 368.876C13.8124 364.211 17.7373 360.429 22.579 360.429H30.503C35.3446 360.429 39.2696 364.211 39.2696 368.876H13.8124Z" fill="#E0F1F0"/>
                <path d="M54.061 312.541C54.061 328.342 50.8466 342.601 45.6869 352.711C43.7951 356.418 39.2768 358.832 34.2716 358.832H19.7895C14.7845 358.832 10.266 356.418 8.37428 352.711C3.21452 342.601 0 328.342 0 312.541C0 296.57 3.28344 282.173 8.54162 272.045C10.4521 268.366 14.9506 265.973 19.932 265.973H34.1284C39.1099 265.973 43.6086 268.366 45.5189 272.046C50.7765 282.174 54.061 296.57 54.061 312.541Z" fill="#E0F1F0"/>
                <path d="M45.347 264.659H7.73502C6.92931 264.659 6.27612 264.005 6.27612 263.2V262.897C6.27612 262.091 6.92931 261.438 7.73502 261.438H45.347C46.1527 261.438 46.8059 262.091 46.8059 262.897V263.2C46.8058 264.005 46.1526 264.659 45.347 264.659Z" fill="#E0F1F0"/>
                <path d="M422.277 235.419H418.483L400.35 192.714L349.844 180.725H399.543L422.277 235.419Z" fill="#573240"/>
                <path d="M400.35 192.714L418.483 235.419H373.068L349.844 180.725L400.35 192.714Z" fill="#FCD4D0"/>
                <path d="M267.25 313.504L317.671 237.246C321.458 231.518 327.866 228.074 334.732 228.076L419.495 228.102L435.48 280.237H404.679C397.705 280.237 390.75 279.518 383.923 278.093L344.924 269.949C344.924 269.949 332.689 300.017 294.835 331.884L267.25 313.504Z" fill="#573240"/>
                <path d="M371.77 275.302L345.014 264.341C337.599 261.304 329.473 266.758 329.473 274.772V358.677H358.554C358.554 358.677 373.59 317.973 371.77 275.302Z" fill="#573240"/>
                <path d="M372.627 276.037L344.647 264.341C337.232 261.304 329.106 266.758 329.106 274.772V297.46" stroke="white" stroke-miterlimit="10" stroke-linecap="round"/>
                <path d="M493.627 196.731L481.326 247.161C476.415 267.245 455.97 280.027 435.298 280.027L426.615 252.185L383.757 244.932C386.067 244.932 387.935 239.117 387.935 231.69C387.935 224.27 386.064 218.255 383.757 218.244H411.823C417.96 218.244 423.689 215.166 427.076 210.048L440.37 189.963C446.713 180.378 457.44 174.614 468.932 174.614H476.272C487.858 174.614 496.379 185.474 493.627 196.731Z" fill="#FF6E00"/>
                <path d="M374.171 223.822C374.171 223.564 374.03 223.326 373.802 223.203L370.305 221.304C369.744 220.999 369.289 220.553 368.974 220.024C368.66 219.495 368.485 218.883 368.485 218.244H383.757C386.064 218.255 387.935 224.27 387.935 231.69C387.935 239.117 386.067 244.932 383.757 244.932L382.96 244.696L365.197 239.421C362.735 238.691 361.047 236.429 361.047 233.86V219.383C361.047 217.801 362.33 216.518 363.912 216.518H365.011L367.243 221.776L374.171 223.822Z" fill="#F1B104"/>
                <path d="M371.251 237.044L364.83 235.137C362.368 234.406 360.68 232.145 360.68 229.576" stroke="#573240" stroke-miterlimit="10" stroke-linecap="round"/>
                <path d="M371.744 227.884L364.829 225.831C363.114 225.322 361.775 224.07 361.12 222.489" stroke="#573240" stroke-miterlimit="10" stroke-linecap="round"/>
                <path d="M371.45 232.572L364.829 230.606C363.114 230.097 361.775 228.845 361.12 227.264" stroke="#573240" stroke-miterlimit="10" stroke-linecap="round"/>
                <path d="M391.608 246.4C394.025 246.329 395.972 240.219 395.972 232.429C395.972 224.599 393.999 218.251 391.563 218.24H384.063C386.165 218.996 387.8 224.727 387.8 231.686C387.8 237.745 386.564 242.739 384.858 244.412C384.46 244.802 384.035 245.012 383.596 245.012L391.608 246.4Z" fill="white"/>
                <path d="M483.601 171.556C473.46 170.16 462.822 171.477 462.144 171.564V167.797L476.224 159.055L483.601 171.556Z" fill="#F1B104"/>
                <path d="M462.11 171.567C462.11 171.567 472.817 170.105 483.324 171.567L488.572 179.355C488.572 179.355 484.165 174.736 475.557 174.614C466.949 174.492 461.86 175.337 461.86 175.337L462.11 171.567Z" fill="white" stroke="#573240" stroke-miterlimit="10" stroke-linecap="round" stroke-linejoin="round"/>
                <path d="M472.144 158.148C471.257 158.046 470.468 158.714 470.421 159.606L470.153 164.719C470.046 167.033 468.243 168.909 465.935 169.108L459.421 169.67C457.982 169.794 456.834 168.488 457.142 167.077L458.202 162.221L459.379 162.119C460.787 161.998 462.182 162.459 463.241 163.395L464.592 164.59C465.069 165.013 465.699 165.221 466.334 165.166C467.487 165.067 468.391 164.137 468.459 162.983L468.894 155.581C468.973 154.231 467.754 153.177 466.428 153.441C463.336 154.055 458.609 154.465 458.507 151.253C458.355 146.473 463.601 147.51 465.165 148.126C466.079 148.485 473.056 151.552 474.966 152.393C475.363 152.567 475.701 152.851 475.939 153.213C476.513 154.089 477.274 155.905 476.332 158.625L472.144 158.148Z" fill="#573240"/>
                <path d="M473.824 163.326L470.164 163.215L470.492 158.597C470.538 157.566 471.404 156.764 472.434 156.797L474.019 156.847C475.657 156.899 476.953 158.252 476.934 159.891L476.928 160.352C476.908 162.038 475.509 163.379 473.824 163.326Z" fill="#F1B104"/>
                <path d="M471.929 160.239C471.975 159.209 472.841 158.407 473.871 158.439" stroke="#573240" stroke-miterlimit="10" stroke-linecap="round"/>
                <path d="M476.909 160.118C476.889 161.804 475.489 163.145 473.804 163.092L470.267 162.981" stroke="#573240" stroke-miterlimit="10" stroke-linecap="round"/>
                <path d="M468.894 155.581L468.459 162.983C468.425 163.56 468.182 164.081 467.803 164.471C467.425 164.859 466.911 165.116 466.335 165.166C465.699 165.221 465.069 165.013 464.592 164.591L463.241 163.396C462.183 162.459 460.787 161.999 459.379 162.12L458.202 162.222C456.336 162.33 455.592 161.077 455.592 161.077C459.199 157.9 460.516 153.608 460.516 153.608L460.518 153.608C462.195 154.097 464.598 153.805 466.428 153.441C467.754 153.177 468.973 154.232 468.894 155.581Z" fill="#F1B104"/>
                <path d="M461.85 156.371C461.85 156.371 463.258 156.223 464.389 156.96" stroke="#573240" stroke-miterlimit="10" stroke-linecap="round"/>
                <path d="M462.821 159.45C463.082 159.427 463.263 159.059 463.226 158.627C463.189 158.194 462.947 157.862 462.686 157.885C462.425 157.907 462.244 158.276 462.281 158.708C462.318 159.14 462.56 159.472 462.821 159.45Z" fill="#573240"/>
                <path d="M329.473 358.678V361.819C329.473 361.819 345.038 364.301 356.356 362.676V358.678H329.473Z" fill="#FCD4D0"/>
                <path d="M332.227 358.676V362.2C332.012 362.172 331.807 362.146 331.615 362.12V358.676H332.227Z" fill="#F6ACC1"/>
                <path d="M334.951 358.676V362.515C334.741 362.491 334.538 362.469 334.339 362.448V358.676H334.951Z" fill="#F6ACC1"/>
                <path d="M337.674 358.676V362.774C337.467 362.757 337.264 362.739 337.062 362.72V358.676H337.674Z" fill="#F6ACC1"/>
                <path d="M340.398 358.676V362.98C340.192 362.968 339.988 362.953 339.786 362.939V358.676H340.398Z" fill="#F6ACC1"/>
                <path d="M343.122 358.676V363.129C342.916 363.121 342.713 363.111 342.51 363.101V358.676H343.122Z" fill="#F6ACC1"/>
                <path d="M345.845 358.676V363.212C345.641 363.209 345.436 363.205 345.233 363.2V358.676H345.845Z" fill="#F6ACC1"/>
                <path d="M348.569 358.676V363.221C348.365 363.223 348.16 363.225 347.957 363.226V358.676H348.569Z" fill="#F6ACC1"/>
                <path d="M351.293 358.676V363.139C351.089 363.15 350.885 363.159 350.681 363.166V358.676H351.293Z" fill="#F6ACC1"/>
                <path d="M354.016 358.676V362.949C353.813 362.969 353.61 362.986 353.404 363.003V358.676H354.016Z" fill="#F6ACC1"/>
                <path d="M267.25 313.503L265.277 316.048C265.277 316.048 277.19 326.949 287.505 331.884L289.906 328.631L267.25 313.503Z" fill="#FCD4D0"/>
                <path d="M269.533 315.028L267.518 318.016C267.354 317.875 267.199 317.741 267.052 317.614L269.024 314.688L269.533 315.028Z" fill="#F6ACC1"/>
                <path d="M271.798 316.54L269.615 319.779C269.453 319.644 269.296 319.513 269.141 319.384L271.29 316.201L271.798 316.54Z" fill="#F6ACC1"/>
                <path d="M274.063 318.052L271.741 321.497C271.578 321.369 271.418 321.242 271.26 321.116L273.554 317.712L274.063 318.052Z" fill="#F6ACC1"/>
                <path d="M276.329 319.566L273.895 323.175C273.731 323.051 273.569 322.926 273.409 322.802L275.819 319.225L276.329 319.566Z" fill="#F6ACC1"/>
                <path d="M278.594 321.078L276.08 324.807C275.914 324.687 275.749 324.566 275.586 324.445L278.085 320.737L278.594 321.078Z" fill="#F6ACC1"/>
                <path d="M280.86 322.59L278.3 326.386C278.131 326.27 277.964 326.154 277.797 326.036L280.351 322.251L280.86 322.59Z" fill="#F6ACC1"/>
                <path d="M283.126 324.103L280.56 327.908C280.388 327.797 280.218 327.684 280.048 327.57L282.615 323.763L283.126 324.103Z" fill="#F6ACC1"/>
                <path d="M285.39 325.615L282.867 329.357C282.693 329.251 282.518 329.146 282.345 329.037L284.881 325.275L285.39 325.615Z" fill="#F6ACC1"/>
                <path d="M287.655 327.127L285.235 330.718C285.056 330.621 284.876 330.522 284.698 330.421L287.147 326.788L287.655 327.127Z" fill="#F6ACC1"/>
                <path d="M358.402 372.814H350.041C349.875 371.821 349.092 371.068 348.152 371.068C347.211 371.068 346.429 371.821 346.262 372.814H321.541C320.688 372.814 320.359 371.705 321.073 371.239C324.324 369.122 329.474 365.229 329.474 361.818C329.474 361.818 345.038 364.3 356.356 362.675C356.356 362.675 359.161 363.227 358.402 372.814Z" fill="#FF6E00"/>
                <path d="M358.402 372.814H350.042C349.875 371.821 349.093 371.068 348.153 371.068C347.211 371.068 346.429 371.821 346.263 372.814H320.684" stroke="#573240" stroke-miterlimit="10" stroke-linecap="round"/>
                <path d="M331.511 366.639C331.511 366.639 324.971 366.476 324.931 364.08C324.89 361.683 330.008 363.795 326.109 367.612" stroke="#573240" stroke-miterlimit="10" stroke-linecap="round"/>
                <path d="M283.577 341.452L276.624 336.809C277.037 335.891 276.804 334.83 276.023 334.308C275.24 333.785 274.171 333.977 273.482 334.71L253.074 321.078C252.283 320.55 252.652 319.315 253.603 319.31C257.436 319.29 263.442 318.798 265.278 316.048C265.278 316.048 277.191 326.949 287.505 331.884C287.505 331.884 289.531 333.901 283.577 341.452Z" fill="#FF6E00"/>
                <path d="M283.454 341.33L276.501 336.686C276.914 335.768 276.682 334.707 275.9 334.185C275.117 333.662 274.048 333.854 273.359 334.588L252.951 320.956" stroke="#573240" stroke-miterlimit="10" stroke-linecap="round"/>
                <path d="M265.094 320.824C265.094 320.824 259.668 317.415 260.922 315.372C262.177 313.329 265.551 317.709 260.016 318.617" stroke="#573240" stroke-miterlimit="10" stroke-linecap="round"/>
                <path d="M439.22 279.979C444.076 279.979 448.279 284.332 449.328 290.448L463.446 372.814" stroke="#573240" stroke-miterlimit="10" stroke-linecap="round"/>
                <path d="M389.294 280.015H452.167C466.393 280.015 478.824 270.408 482.413 256.64L495 208.355H483.386C471.777 208.355 461.151 214.87 455.882 225.215L449.752 237.252C445.085 246.416 435.673 252.185 425.391 252.185H417.066C401.707 252.185 389.265 264.654 389.294 280.015Z" fill="white" stroke="#573240" stroke-miterlimit="10" stroke-linecap="round"/>
                <path d="M386.846 372.814L400.965 290.448C402.013 284.332 406.216 279.979 411.072 279.979H458.929C463.785 279.979 467.988 284.332 469.036 290.448L483.155 372.814" stroke="#573240" stroke-miterlimit="10" stroke-linecap="round"/>
                <path d="M452.538 309.177C454.371 305.337 458.106 302.708 462.416 302.708C466.624 302.708 470.284 305.214 472.161 308.907" stroke="#573240" stroke-miterlimit="10" stroke-linecap="round"/>
                <path d="M87.1286 372.947H111.85C112.703 372.947 113.032 371.837 112.318 371.371C109.067 369.254 105.28 366.386 104.023 362.507L78.2587 362.44C78.2587 362.44 75.4542 363.36 76.2132 372.947H83.3498V371.795H87.1286V372.947Z" fill="#FCD4D0"/>
                <path d="M76.2141 372.947H83.3507V371.799H87.1295V372.947H112.708" stroke="#573240" stroke-miterlimit="10" stroke-linecap="round" stroke-linejoin="round"/>
                <path d="M100.855 366.217C101.47 365.44 102.617 364.918 103.931 364.918C104.718 364.918 105.446 365.105 106.034 365.422" stroke="#573240" stroke-miterlimit="10" stroke-linecap="round" stroke-linejoin="round"/>
                <path d="M102.079 368.176C102.726 367.399 103.933 366.877 105.316 366.877C106.347 366.877 107.282 367.168 107.958 367.638" stroke="#573240" stroke-miterlimit="10" stroke-linecap="round" stroke-linejoin="round"/>
                <path d="M146.131 372.947H170.852C171.705 372.947 172.034 371.837 171.32 371.371C168.069 369.254 164.282 366.386 163.025 362.507L136.037 362.44C136.037 362.44 133.232 363.36 133.991 372.947H142.352V371.795H146.131V372.947Z" fill="#FCD4D0"/>
                <path d="M133.992 372.946H142.353V371.799H146.132V372.946H171.71" stroke="#573240" stroke-miterlimit="10" stroke-linecap="round" stroke-linejoin="round"/>
                <path d="M159.857 366.217C160.472 365.44 161.619 364.918 162.934 364.918C163.721 364.918 164.448 365.105 165.037 365.422" stroke="#573240" stroke-miterlimit="10" stroke-linecap="round" stroke-linejoin="round"/>
                <path d="M161.082 368.176C161.728 367.399 162.935 366.876 164.318 366.876C165.35 366.876 166.284 367.167 166.96 367.638" stroke="#573240" stroke-miterlimit="10" stroke-linecap="round" stroke-linejoin="round"/>
                <path d="M163.042 255.656C163.042 255.656 158.268 344.359 163.025 362.507H136.074C127.156 336.589 115.463 296.235 130.335 259.748C130.335 259.748 129.514 250.204 128.487 237.843L124.129 254.031C118.058 279.265 104.023 362.507 104.023 362.507H78.0507C78.0507 362.507 64.5047 297.459 88.4373 256.678C88.4373 256.678 98.3783 191.39 98.4212 183.596H160.594C160.594 183.596 162.553 205.488 163.042 255.656Z" fill="#573240"/>
                <path d="M98.4216 183.474H163.043L169.308 245.799C169.822 250.902 165.817 255.331 160.69 255.331H124.86C116.528 255.331 109.565 248.987 108.791 240.689L104.319 192.75C104.037 189.727 101.5 187.415 98.4639 187.415H98.0884L98.4216 183.474Z" fill="#F1B104"/>
                <path d="M163.437 187.39H98.0906L98.4224 183.472H163.043L163.437 187.39Z" fill="#FF6E00"/>
                <path d="M191.897 156.529L172.707 110.106C170.555 104.901 166.106 100.99 160.669 99.5236L135.425 92.7162L118.608 87.394L115.607 91.7L82.2936 97.3895C76.386 98.3972 71.4235 102.395 69.1785 107.951L52.6052 148.964C45.3878 166.822 61.6428 185.262 80.2616 180.337L97.4518 175.791L98.4213 183.596H173.802C187.751 183.596 197.227 169.422 191.897 156.529ZM87.25 144.51L90.4327 134.564C90.7547 133.558 92.2212 133.695 92.3509 134.744L93.564 144.51H87.25Z" fill="#B2DDDA"/>
                <path d="M110.722 172.28L97.4519 175.79" stroke="#573240" stroke-miterlimit="10" stroke-linecap="round"/>
                <path d="M87.2495 144.755H113.934" stroke="#573240" stroke-miterlimit="10" stroke-linecap="round"/>
                <path d="M131.479 101.117C132.186 101.117 132.759 100.544 132.759 99.8373C132.759 99.1305 132.186 98.5576 131.479 98.5576C130.773 98.5576 130.2 99.1305 130.2 99.8373C130.2 100.544 130.773 101.117 131.479 101.117Z" stroke="#573240" stroke-miterlimit="10" stroke-linecap="round"/>
                <path d="M131.479 113.156C132.186 113.156 132.758 112.583 132.758 111.877C132.758 111.17 132.186 110.597 131.479 110.597C130.772 110.597 130.199 111.17 130.199 111.877C130.199 112.583 130.772 113.156 131.479 113.156Z" stroke="#573240" stroke-miterlimit="10" stroke-linecap="round"/>
                <path d="M131.479 125.196C132.186 125.196 132.758 124.623 132.758 123.916C132.758 123.209 132.186 122.636 131.479 122.636C130.772 122.636 130.199 123.209 130.199 123.916C130.199 124.623 130.772 125.196 131.479 125.196Z" stroke="#573240" stroke-miterlimit="10" stroke-linecap="round"/>
                <path d="M131.479 137.235C132.186 137.235 132.758 136.662 132.758 135.956C132.758 135.249 132.186 134.676 131.479 134.676C130.772 134.676 130.199 135.249 130.199 135.956C130.199 136.662 130.772 137.235 131.479 137.235Z" stroke="#573240" stroke-miterlimit="10" stroke-linecap="round"/>
                <path d="M131.479 148.499C132.186 148.499 132.758 147.926 132.758 147.22C132.758 146.513 132.186 145.94 131.479 145.94C130.772 145.94 130.199 146.513 130.199 147.22C130.199 147.926 130.772 148.499 131.479 148.499Z" stroke="#573240" stroke-miterlimit="10" stroke-linecap="round"/>
                <path d="M163.901 122.248C163.901 122.248 162.748 134.598 160.473 148.979" stroke="#573240" stroke-miterlimit="10" stroke-linecap="round"/>
                <path d="M113.658 170.106C116.089 170.106 118.059 164.376 118.059 157.308C118.059 150.24 116.089 144.51 113.658 144.51C111.228 144.51 109.258 150.24 109.258 157.308C109.258 164.376 111.228 170.106 113.658 170.106Z" fill="#573240"/>
                <path d="M136.183 154.179C136.183 154.179 129.285 136.544 126.444 136.901C123.603 137.258 132.327 152.818 132.327 152.818L136.183 154.179Z" fill="#FF6E00"/>
                <path d="M136.241 157.265V167.711H111.095C109.982 165.389 109.258 161.595 109.258 157.308C109.258 152.791 110.062 148.821 111.278 146.544H120.644C121.577 146.544 122.503 146.749 123.374 147.151L133.017 151.59C134.957 152.485 136.241 154.743 136.241 157.265Z" fill="#F6ACC1"/>
                <path d="M126.252 152.827L133.53 156.178C134.995 156.853 135.964 158.558 135.964 160.461V165.059" stroke="#573240" stroke-miterlimit="10" stroke-linecap="round"/>
                <path d="M126.252 157.18L133.53 160.531C134.995 161.206 135.964 162.911 135.964 164.814V167.558" stroke="#573240" stroke-miterlimit="10" stroke-linecap="round"/>
                <path d="M126.619 161.955L133.897 165.306C134.817 165.73 135.541 166.559 135.953 167.589" stroke="#573240" stroke-miterlimit="10" stroke-linecap="round"/>
                <path d="M157.795 183.595H125.25L135.722 150.691C136.046 149.671 136.993 148.979 138.063 148.979H163.681C166.22 148.979 168.026 151.449 167.255 153.869L157.795 183.595Z" fill="white"/>
                <path d="M140.67 152.4L130.742 183.595H125.234L135.669 150.808C136.015 149.718 137.027 148.979 138.169 148.979C139.946 148.979 141.209 150.707 140.67 152.4Z" fill="#FCD4D0"/>
                <path d="M125.311 183.335L135.669 151.053C136.016 149.963 137.027 149.224 138.17 149.224H164.59" stroke="white" stroke-miterlimit="10" stroke-linecap="round"/>
                <path d="M141.009 148.847L141.015 148.824C141.296 147.735 142.116 146.995 143.042 146.995C144.481 146.995 145.504 148.724 145.068 150.417L145.062 150.44C144.781 151.529 143.962 152.269 143.036 152.269" stroke="#573240" stroke-miterlimit="10" stroke-linecap="round"/>
                <path d="M147.497 148.847L147.503 148.824C147.784 147.735 148.604 146.995 149.529 146.995C150.969 146.995 151.992 148.724 151.556 150.417L151.55 150.44C151.269 151.529 150.449 152.269 149.523 152.269" stroke="#573240" stroke-miterlimit="10" stroke-linecap="round"/>
                <path d="M153.985 148.847L153.991 148.824C154.272 147.735 155.091 146.995 156.017 146.995C157.457 146.995 158.48 148.724 158.044 150.417L158.038 150.44C157.757 151.529 156.937 152.269 156.011 152.269" stroke="#573240" stroke-miterlimit="10" stroke-linecap="round"/>
                <path d="M160.473 148.847L160.479 148.824C160.759 147.735 161.579 146.995 162.505 146.995C163.944 146.995 164.968 148.724 164.531 150.417L164.525 150.44C164.244 151.529 163.425 152.269 162.499 152.269" stroke="#573240" stroke-miterlimit="10" stroke-linecap="round"/>
                <path d="M165.413 159.693H169.815C171.695 159.693 173.458 160.608 174.541 162.146L175.174 163.047C179.076 168.591 178.723 176.076 174.319 181.229L174.084 181.504C172.949 182.831 171.291 183.596 169.545 183.596H152.919C148.04 183.596 144.194 179.44 144.57 174.574L145.151 167.05C145.25 165.77 146.318 164.782 147.601 164.782H161.216C162.751 164.782 164.109 163.789 164.575 162.326L165.413 159.693Z" fill="#F6ACC1"/>
                <path d="M157.916 179.188H151.864C148.977 179.188 146.459 177.831 144.843 175.763" stroke="#573240" stroke-miterlimit="10" stroke-linecap="round"/>
                <path d="M158.161 175.27H152.109C149.222 175.27 146.705 173.913 145.089 171.845" stroke="#573240" stroke-miterlimit="10" stroke-linecap="round"/>
                <path d="M158.528 170.74H152.476C149.589 170.74 147.071 169.383 145.455 167.315" stroke="#573240" stroke-miterlimit="10" stroke-linecap="round"/>
                <path d="M135.425 82.0314V92.7163L118.67 87.4136L122.185 82.0314H135.425Z" fill="#F6ACC1"/>
                <path d="M138.155 75.0514V84.3931C138.155 86.2444 136.654 87.7454 134.803 87.7454H129.566C127.849 87.7454 126.457 86.3533 126.457 84.6368V82.1269H122.61C121.54 82.1269 120.673 81.26 120.673 80.1899V78.7464C120.673 77.6764 121.54 76.8095 122.61 76.8095H124.276C125.48 76.8095 126.457 77.7853 126.457 78.9913V75.3954C126.457 73.9898 127.597 72.85 129.002 72.85H135.954C137.169 72.85 138.155 73.8356 138.155 75.0514Z" fill="#F6ACC1"/>
                <path d="M140.07 70.7882C140.07 73.0826 138.125 74.9424 135.726 74.9424C134.971 74.9424 134.26 74.7575 133.64 74.4331L130.707 73.1793C130.453 73.0704 130.189 72.9883 129.919 72.9332C129.65 72.8781 129.374 72.85 129.097 72.85C127.64 72.85 126.457 74.0327 126.457 75.4921V78.8689H126.453C126.39 77.7205 125.44 76.8095 124.276 76.8095H124.006V73.4781C124.006 71.8754 125.306 70.5751 126.909 70.5751H131.388C131.504 68.3811 133.401 66.6352 135.726 66.6352C138.125 66.6352 140.07 68.495 140.07 70.7882Z" fill="#FF6E00"/>
                <path d="M138.363 90.8993V94.5687C138.363 95.2421 137.65 95.6767 137.052 95.3682L132.05 92.7897C131.978 93.1864 131.63 93.4864 131.213 93.4864H130.642C130.227 93.4864 129.88 93.1876 129.806 92.7934L124.811 95.3682C124.212 95.6767 123.5 95.2421 123.5 94.5687V90.8993C123.5 90.2896 124.092 89.8574 124.672 90.0423L129.791 91.6756C129.802 91.2152 130.179 90.8454 130.642 90.8454H131.213C131.677 90.8454 132.054 91.2164 132.063 91.6768L137.19 90.0423C137.77 89.8574 138.363 90.2896 138.363 90.8993Z" fill="#573240"/>
                <path d="M125.183 79.6754C125.183 78.7963 124.47 78.0838 123.591 78.0838" stroke="#573240" stroke-miterlimit="10" stroke-linecap="round"/>
                <path d="M134.488 83.9418C133.538 84.3066 132.513 83.9368 132.198 83.1162L131.604 83.5994" stroke="#573240" stroke-miterlimit="10" stroke-linecap="round"/>
                <path d="M132.034 77.1555H129.569C129.295 77.1555 129.073 76.9334 129.073 76.6595V76.5542C129.073 76.2802 129.295 76.0582 129.569 76.0582H132.034C132.308 76.0582 132.53 76.2803 132.53 76.5542V76.6595C132.53 76.9334 132.308 77.1555 132.034 77.1555Z" fill="#FF6E00"/>
                <path d="M135.615 76.607V81.2C135.615 81.6442 135.255 82.0044 134.811 82.0044H133.959" stroke="#573240" stroke-miterlimit="10" stroke-linecap="round"/>
                <path d="M130.909 79.6774C131.179 79.6774 131.399 79.3642 131.399 78.9778C131.399 78.5914 131.179 78.2782 130.909 78.2782C130.639 78.2782 130.419 78.5914 130.419 78.9778C130.419 79.3642 130.639 79.6774 130.909 79.6774Z" fill="#573240"/>
                <path d="M137.03 79.59C137.266 79.59 137.458 79.3159 137.458 78.9778C137.458 78.6397 137.266 78.3656 137.03 78.3656C136.793 78.3656 136.601 78.6397 136.601 78.9778C136.601 79.3159 136.793 79.59 137.03 79.59Z" fill="#573240"/>
                <path d="M138.277 77.1555H135.812C135.538 77.1555 135.316 76.9334 135.316 76.6595V76.5542C135.316 76.2802 135.538 76.0582 135.812 76.0582H138.277C138.551 76.0582 138.773 76.2803 138.773 76.5542V76.6595C138.773 76.9334 138.551 77.1555 138.277 77.1555Z" fill="#FF6E00"/>
                <path d="M135.293 87.9906H129.688C127.971 87.9906 126.579 86.5985 126.579 84.8814" stroke="#573240" stroke-miterlimit="10" stroke-linecap="round"/>
                </svg>