<svg width="25" height="26" viewBox="0 0 25 26" fill="none" xmlns="http://www.w3.org/2000/svg">
<path d="M12.4998 0.5C5.94946 0.5 0.416504 6.22375 0.416504 13C0.416504 19.7763 5.94946 25.5 12.4998 25.5C19.0502 25.5 24.5832 19.7763 24.5832 13C24.5832 6.22375 19.0502 0.5 12.4998 0.5ZM12.4998 6.75C14.5866 6.75 16.1248 8.34 16.1248 10.5C16.1248 12.66 14.5866 14.25 12.4998 14.25C10.4143 14.25 8.87484 12.66 8.87484 10.5C8.87484 8.34 10.4143 6.75 12.4998 6.75ZM6.33009 18.965C7.41396 17.315 9.22163 16.215 11.2915 16.215H13.7082C15.7793 16.215 17.5857 17.315 18.6696 18.965C17.1253 20.675 14.9346 21.75 12.4998 21.75C10.065 21.75 7.87434 20.675 6.33009 18.965Z" fill="#8914FF"/>
</svg>
